<svg width="35" height="35" viewBox="0 0 35 35" fill="none" xmlns="http://www.w3.org/2000/svg">
<g clip-path="url(#clip0)">
<path d="M34.5921 8.54663C34.3351 8.3529 34.0022 8.2909 33.6929 8.37928L19.3374 12.4808C18.8972 12.6066 18.5938 13.009 18.5938 13.4668V27.6045C17.765 27.1049 16.7194 26.7969 15.5176 26.7969C12.4783 26.7969 10.3906 28.7787 10.3906 30.8984C10.3906 32.9965 12.448 35 15.5176 35C18.5569 35 20.6445 33.0182 20.6445 30.8984V18.3418L32.9492 14.8262V23.503C32.1204 23.0033 31.0749 22.6953 29.873 22.6953C26.8337 22.6953 24.7461 24.6771 24.7461 26.7969C24.7461 28.895 26.8035 30.8984 29.873 30.8984C32.9124 30.8984 35 28.9166 35 26.7969V9.36523C35 9.04346 34.849 8.74036 34.5921 8.54663Z" fill="#FF269D"/>
<path d="M17.7692 7.69002C18.164 7.00882 17.6732 6.15234 16.8821 6.15234H13.3593C12.8074 6.15234 12.3323 5.72845 12.3059 5.1772C12.2778 4.58835 12.7474 4.10156 13.3301 4.10156H19.4824C21.1814 4.10156 22.5586 2.72433 22.5586 1.02539C22.5586 0.459102 22.0995 0 21.5332 0H15.3809C11.4167 0 8.20312 3.21357 8.20312 7.17773V15.2999C7.37434 14.8002 6.32878 14.4922 5.12695 14.4922C2.08763 14.4922 0 16.474 0 18.5938C0 20.6918 2.05741 22.6953 5.12695 22.6953C8.16628 22.6953 10.2539 20.7135 10.2539 18.5938V10.2539H13.3301C15.224 10.2539 16.8817 9.22147 17.7692 7.69002Z" fill="#27FFF8"/>
</g>
<defs>
<clipPath id="clip0">
<rect width="35" height="35" fill="white"/>
</clipPath>
</defs>
</svg>
